<svg version="1.0" xmlns="http://www.w3.org/2000/svg" width="346.667" height="346.667" viewBox="0 0 260 260"><path d="M109.6 24.6c-21 4.1-38.5 13.4-54.3 28.7-33.6 32.6-41.9 81.6-21 123.2 13.2 26.3 39.2 47.3 68.3 55.2 8.9 2.4 11.6 2.7 26.4 2.7 14.7-.1 17.6-.4 26.5-2.7 36.7-9.8 66.3-39.4 76.2-76.2 2.4-9 2.7-11.7 2.7-26.5-.1-14.5-.4-17.6-2.6-26.1-10.8-40-43.5-70.7-83.8-78.3-10-1.9-28.8-1.9-38.4 0zm44.4 7.7c45.3 11.7 76 52.6 74.5 99.2-1.4 47.4-32.5 84.8-79 95.2-8.7 1.9-30.8 2.2-39 .5-40-8.6-68.1-34.9-78.3-73.2-3.5-13.3-3.7-35.3-.4-48.3 4.8-19.1 14.1-35.5 27.4-48.3 15.6-15 33.6-23.9 55.4-27.4 10-1.5 28.7-.5 39.4 2.3z"/><path d="M109 32.4c-19.1 4.1-35.7 13.1-49.6 27-14.2 14.2-22.7 30.1-26.8 49.9-1.6 7.8-2.1 27.8-.8 35.1.4 2.2.7-3.5.7-13 .1-19.7 1.7-27.7 9-43.1 5.3-11.3 8.9-16.6 17.2-25.4 22.7-24.1 57.3-35.5 89-29.4 9.7 1.9 11.4 1.8 4.8-.2-7.1-2.1-34.9-2.7-43.5-.9zm56 5.6c.8.5 2 1 2.5 1 .6 0 .3-.5-.5-1s-1.9-1-2.5-1c-.5 0-.3.5.5 1z"/><path d="M134 71.4c-15.7 2.3-29.1 4.5-29.7 4.9-1 .6-1.3 9.5-1.3 38.6 0 44.7.6 42.1-11 44.1-8.4 1.4-13.1 5.1-14.9 11.6-3 11.2 6.5 20.2 18.8 17.5 6.8-1.5 9.6-3.4 12.1-8.5 2-4.2 2-5.2 1.4-39.4l-.7-35 3.4-.6c15.7-2.8 52.5-7.4 53.1-6.8.5.5.8 11.3.6 24-.4 27.2 0 26.4-11 28.2-12.2 2.1-18 10-14.4 19.5 3.1 8 9.3 10.8 19.2 8.6 5.6-1.3 10.8-5.8 11.9-10.4.3-1.2.4-24.3.3-51.2l-.3-49-4.5-.2c-2.5-.1-17.3 1.8-33 4.1zm31.8 10.2c.2 4.9-.1 7.4-1 8.1-1.1.9-49.4 8.3-54.1 8.3-1.6 0-1.7-.9-1.5-8.3l.3-8.2 24.5-3.7c13.5-2 26.1-3.6 28-3.5l3.5.2.3 7.1zm-.6 72.9c1 .4 1.2 2.1.8 7.1-.7 7.9-2.4 9.8-9.7 10.8-6.5.9-9.7-1.4-10.1-7.2-.4-4.7 2.2-8.1 6.1-8.3 1.7 0 10.7-2.2 11.4-2.8.1 0 .7.1 1.5.4zM103 170.3c0 8.6-1 10-8.3 11.7-3.8.8-5.3.7-7.6-.5-3.3-1.6-4.1-3.3-4.1-8.1 0-4.7 2.7-7 9.1-7.9 3-.4 6.3-1.1 7.4-1.6 3.4-1.3 3.5-1.1 3.5 6.4z"/><path d="M137 78.8l-25.5 3.7-.1 7.5-.1 7.5.4-6.8c.2-3.7.8-6.7 1.2-6.7.5 0 11.7-1.6 25.1-3.5 13.4-1.9 24.7-3.5 25.1-3.5.5 0 .9-.5.9-1 0-.6-.3-1-.7-.9-.5 0-12.3 1.7-26.3 3.7zm19 78.9c-6.9 1.4-9 3.2-8.9 7.2.1 2.5.1 2.5 1.4-.5 1.4-3.2 5.5-5.4 10.1-5.4 2.9 0 5.4-1 5.4-2.1 0-.5-.3-.8-.7-.8-.5.1-3.7.8-7.3 1.6zm-62 8.8c-3 .7-6.3 1.6-7.2 2-2.1.9-3.5 7.2-1.9 8.8.8.8 1.1.3 1.1-1.9 0-5.1 2.1-6.5 11.3-7.8 2.6-.4 4.7-1.1 4.7-1.7 0-1.1-1-1-8 .6z"/><path d="M173.3 116.8c.3 26.8.1 49.8-.4 51.5-1.2 4.2-6.6 9.5-10.9 10.7-1.9.5-5.7 1-8.5 1.1-4.3 0-4.7.2-2.5 1 3.5 1.4 12.5 0 16.2-2.5 1.7-1.1 4.1-3.4 5.2-4.9 2.1-2.8 2.1-3.9 2.4-52.9.2-35.2-.1-50.5-.8-51.2-.8-.8-1 12.4-.7 47.2zM138.5 102c-10.4 1.6-20.9 3.1-23.2 3.5l-4.3.6v35.5c0 33.3-.1 35.7-2 39.3-3 6-8 8.6-16.7 8.6-4.8 0-6.8.3-6.2 1 .6.5 3.9.9 7.4.9 7.6-.2 13.5-3.1 16.8-8.4 2.2-3.4 2.2-4.1 2.2-39.5v-35.9l25.3-3.7c13.8-1.9 25.5-3.9 25.9-4.2 1.1-1.2-5.7-.6-25.2 2.3zM33.2 151c0 1.4.2 1.9.5 1.2.2-.6.2-1.8 0-2.5-.3-.6-.5-.1-.5 1.3zm.9 4.6c0 1.1.3 1.4.6.6.3-.7.2-1.6-.1-1.9-.3-.4-.6.2-.5 1.3zm198-57.6c0 .8.4 2.4.9 3.5.5 1.3.9 1.4.9.5 0-.8-.4-2.4-.9-3.5-.5-1.3-.9-1.4-.9-.5zm2.1 7.5c0 1.1.4 3.3.8 5 .7 2.7.8 2.7.8.5 0-1.4-.4-3.6-.8-5-.6-2-.8-2.1-.8-.5z"/><path d="M236.3 128c0 15.1-1.3 23.1-5.4 35.1-18.4 53.7-76.9 84.9-130.2 69.4-9.9-2.8-11.6-2.5-2.1.5 32.8 10.1 66.5 4.5 94.7-15.8 26.6-19.1 42.9-49.5 44.3-82.7.3-6.6.1-14-.3-16.5-.7-3.4-.9-1.1-1 10z"/></svg>